<?xml version="1.0" encoding="UTF-8" standalone="no"?>
<svg
   xmlns:dc="http://purl.org/dc/elements/1.1/"
   xmlns:cc="http://creativecommons.org/ns#"
   xmlns:rdf="http://www.w3.org/1999/02/22-rdf-syntax-ns#"
   xmlns:svg="http://www.w3.org/2000/svg"
   xmlns="http://www.w3.org/2000/svg"
   xmlns:sodipodi="http://sodipodi.sourceforge.net/DTD/sodipodi-0.dtd"
   xmlns:inkscape="http://www.inkscape.org/namespaces/inkscape"
   width="135.46672mm"
   height="135.4621mm"
   viewBox="0 0 135.46672 135.4621"
   version="1.1"
   id="svg8"
   inkscape:version="1.0.1 (3bc2e813f5, 2020-09-07)"
   sodipodi:docname="homeroom_teacher.svg">
  <defs
     id="defs2" />
  <sodipodi:namedview
     id="base"
     pagecolor="#ffffff"
     bordercolor="#666666"
     borderopacity="1.0"
     inkscape:pageopacity="0.0"
     inkscape:pageshadow="2"
     inkscape:zoom="0.35"
     inkscape:cx="1110.2858"
     inkscape:cy="53.134238"
     inkscape:document-units="mm"
     inkscape:current-layer="layer1"
     inkscape:document-rotation="0"
     showgrid="false"
     fit-margin-top="0"
     fit-margin-left="0"
     fit-margin-right="0"
     fit-margin-bottom="0"
     inkscape:window-width="1920"
     inkscape:window-height="1017"
     inkscape:window-x="-8"
     inkscape:window-y="-8"
     inkscape:window-maximized="1" />
  <metadata
     id="metadata5">
    <rdf:RDF>
      <cc:Work
         rdf:about="">
        <dc:format>image/svg+xml</dc:format>
        <dc:type
           rdf:resource="http://purl.org/dc/dcmitype/StillImage" />
        <dc:title></dc:title>
      </cc:Work>
    </rdf:RDF>
  </metadata>
  <g
     inkscape:label="Layer 1"
     inkscape:groupmode="layer"
     id="layer1"
     transform="translate(187.9298,-134.10823)">
    <g
       id="g14"
       transform="matrix(0.26458333,0,0,0.26458333,-187.9297,134.10605)" fill="#1763b3">
      <path
         d="M 507.516,244.883 281.658,10.741 c -0.066,-0.069 -0.134,-0.137 -0.202,-0.205 -14.037,-14.037 -36.875,-14.037 -50.912,0 -0.068,0.068 -0.136,0.136 -0.202,0.205 L 4.484,244.883 c -6.135,6.36 -5.952,16.489 0.407,22.624 6.361,6.135 16.489,5.952 22.624,-0.408 L 40,254.157 v 211.834 c 0,25.364 20.636,46 46,46 h 340 c 25.364,0 46,-20.636 46,-46 V 254.157 l 12.484,12.942 c 3.14,3.255 7.325,4.893 11.518,4.892 3.998,0 8.002,-1.49 11.106,-4.484 6.36,-6.135 6.542,-16.263 0.408,-22.624 z M 440,465.992 c 0,7.72 -6.28,14 -14,14 H 86 c -7.72,0 -14,-6.28 -14,-14 V 220.983 L 253.234,33.101 c 1.543,-1.477 3.988,-1.477 5.531,0 L 440,220.983 Z"
         id="path12" />
      <g
         id="g87"
         transform="translate(770.28568,227.1867)">
        <g
           id="g30">
          <path
             d="M -446.50501,90.388781 -481.33132,79.83377 c -0.83987,-2.54426 -2.70645,-4.745806 -5.31489,-6.608165 2.87006,-3.190198 5.29302,-6.41918 7.13563,-9.090371 4.37137,-6.337379 8.00794,-13.163442 10.52681,-19.749042 1.24111,-2.777672 2.29887,-5.565922 3.15565,-8.302693 3.39117,-2.841843 5.3868,-7.086273 5.3868,-11.538727 V 13.637879 c 0,-3.129552 -0.98442,-6.190704 -2.796,-8.728617 V -10.44515 c 0,-26.935448 -21.91251,-48.845136 -48.84444,-48.845136 h -15.83463 c -26.93262,0 -48.84584,21.909688 -48.84584,48.845136 V 4.910672 c -1.81088,2.537209 -2.7953,5.59977 -2.7953,8.727912 v 10.906893 c 0,4.449634 1.99635,8.691243 5.38681,11.537317 0.85607,2.73254 1.91384,5.523611 3.15493,8.307629 2.51958,6.583484 6.15756,13.408137 10.52681,19.741991 1.84261,2.671896 4.26699,5.902288 7.13704,9.093896 -2.60983,1.862359 -4.47571,4.063905 -5.31629,6.608165 l -34.82561,10.555011 c -24.51954,7.045374 -39.21249,112.984044 -39.21249,112.984044 h 0.003 c -0.074,0.47106 -0.12415,0.94916 -0.12415,1.44138 0,5.10544 4.13795,9.24409 9.2441,9.24409 h 207.16634 c 5.10686,0 9.2441,-4.13865 9.2441,-9.24409 7.1e-4,-4.43271 -14.81354,-107.38005 -39.33167,-114.426129 z m -82.86614,27.424839 c -0.13258,1.27989 -1.0352,2.34964 -2.2756,2.69517 -0.27854,0.0769 -0.5599,0.1157 -0.84056,0.1157 -0.96608,0 -1.89762,-0.4499 -2.49983,-1.24675 l -8.79702,-11.66918 c -0.41041,-0.54369 -0.63113,-1.20654 -0.63113,-1.88703 l 0.0117,-18.70963 c 7.1e-4,-1.097247 0.57543,-2.114106 1.51542,-2.680358 0.9407,-0.566253 2.10776,-0.598691 3.07807,-0.08603 2.56119,1.353931 5.11885,2.263602 7.60034,2.70504 1.49427,0.265144 2.58376,1.56407 2.58376,3.082305 v 7.805553 c 0.44566,0.17558 0.85114,0.45342 1.17905,0.81658 0.59375,0.65793 0.88004,1.53657 0.78979,2.41804 z m 33.14236,-10.10441 -8.78503,11.66143 c -0.60081,0.79684 -1.53304,1.24675 -2.50123,1.24675 -0.27856,0 -0.56062,-0.0374 -0.83776,-0.11428 -1.23969,-0.34553 -2.14301,-1.41457 -2.27558,-2.69587 l -1.71499,-16.63289 c -0.0923,-0.88146 0.19534,-1.76011 0.7891,-2.41803 0.3279,-0.36387 0.73267,-0.64171 1.17764,-0.81659 v -7.806926 c 0,-1.518235 1.09089,-2.817161 2.58515,-3.082306 2.48079,-0.441437 5.03705,-1.350403 7.59682,-2.702924 0.97102,-0.513365 2.13879,-0.479517 3.07948,0.08603 0.94,0.566958 1.51471,1.584521 1.51471,2.681769 l 10e-4,18.709617 c 0.001,0.67979 -0.21861,1.34054 -0.62973,1.88422 z m -15.36146,-37.221788 h -16.81976 c -3.71626,0 -10.89138,-4.970756 -18.54813,-16.075802 -6.04474,-8.759645 -10.24403,-18.456462 -11.23339,-25.936926 l -0.16853,-1.296811 -3.03929,-1.97448 c -0.88852,-0.577537 -1.42446,-1.565482 -1.42446,-2.625355 v -5.154102 c 0,-1.729081 1.40119,-3.130962 3.13026,-3.130962 h 1.27848 V 8.710138 c 0,-1.187509 0.67062,-2.271358 1.7326,-2.801648 4.31002,-2.152185 12.86376,-5.76195837 21.72001,-5.76195837 7.06653,0 12.92509,2.35104237 17.41492,6.98613737 5.59343,5.780999 12.0387,8.711693 19.16234,8.711693 4.03076,0 8.19903,-0.950571 12.38564,-2.827034 0.9682,-0.434386 2.09083,-0.34765 2.98216,0.22918 0.41747,0.270082 0.75736,0.63113 1.00136,1.045771 h 1.70792 c 1.72838,0 3.13025,1.401881 3.13025,3.130962 v 5.154102 c 0,1.059872 -0.53734,2.047818 -1.42514,2.625355 l -3.03859,1.97448 -0.16783,1.289759 c -0.99006,7.4854 -5.18937,17.184333 -11.2348,25.946094 -7.65464,11.103635 -14.82906,16.074391 -18.54602,16.074391 z"
             id="path28"
             style="stroke-width:0.705171" />
        </g>
      </g>
    </g>
  </g>
</svg>
